#!OML:ASF X:\für Bonn\!DataBase\2005_08_10_Bjorn_Final\c3d\bjorn.ASF
:FULLY-SPECIFIED
:DEGREES
76
root 26.3839 17.7029 -12.5285 182.092 -21.8697 -164.207
lowerback -0.282547 -2.39346 11.9405
upperback 8.61114 -5.14326 4.01773
thorax 8.87797 -2.21326 -2.77104
lowerneck -3.66959 10.2825 4.50069
upperneck -2.57708 13.4745 -10.7364
head 0.954474 6.61823 -3.88652
rclavicle -8.15017e-015 -7.15625e-015
rhumerus -46.7253 3.29543 -90.7952
rradius 73.2557
rwrist -5.43594
rhand -29.6696 26.2126
rfingers 7.12502
rthumb -2.99836 -3.74607
lclavicle -8.15017e-015 -7.15625e-015
lhumerus -31.6542 -32.0903 94.6181
lradius 93.2311
lwrist -5.11872
lhand -40.8183 -21.5244
lfingers 7.12502
lthumb -13.7566 8.00081
rfemur -32.368 -2.06003 25.4908
rtibia 53.243
rfoot -19.1971 27.3176
rtoes -7.15174
lfemur -0.438589 -5.67429 -9.08139
ltibia 70.8621
lfoot 5.3355 2.27265
ltoes -17.5629
77
root 26.2827 17.6272 -12.7312 181.481 -21.898 -163.664
lowerback 0.17099 -2.04765 12.6394
upperback 8.77889 -4.73276 4.14276
thorax 8.84925 -1.99119 -2.97066
lowerneck -4.16696 10.2046 4.59254
upperneck -2.4889 13.3566 -10.9373
head 1.08533 6.53621 -3.94641
rclavicle -3.73715e-014 -4.25399e-014
rhumerus -44.9054 3.49521 -91.5692
rradius 74.5692
rwrist -6.16958
rhand -29.6707 26.1264
rfingers 7.12502
rthumb -2.99944 -3.8323
lclavicle -3.73715e-014 -4.25399e-014
lhumerus -33.1385 -31.5356 95.9962
lradius 92.4772
lwrist -4.69503
lhand -40.6326 -21.679
lfingers 7.12502
lthumb -13.5775 7.85826
rfemur -31.1048 -1.66131 25.906
rtibia 53.3721
rfoot -20.7752 27.2798
rtoes -6.85204
lfemur -2.14517 -4.99779 -7.91729
ltibia 74.0887
lfoot 4.33535 2.5441
ltoes -16.766
78
root 26.1785 17.5577 -12.9306 180.869 -21.9756 -163.125
lowerback 0.65613 -1.71054 13.3424
upperback 8.90807 -4.30841 4.24289
thorax 8.7683 -1.76206 -3.19824
lowerneck -4.62692 10.1294 4.84362
upperneck -2.33581 13.2454 -11.147
head 1.24507 6.45747 -4.0393
rclavicle -1.11319e-014 -3.06128e-014
rhumerus -42.9311 3.87584 -92.4221
rradius 75.739
rwrist -6.76014
rhand -29.4717 26.3487
rfingers 7.12502
rthumb -2.80723 -3.61259
lclavicle -1.11319e-014 -3.06128e-014
lhumerus -34.784 -30.9464 97.3296
lradius 91.8166
lwrist -4.21251
lhand -40.483 -22.0284
lfingers 7.12502
lthumb -13.4334 7.5184
rfemur -29.8158 -1.2991 26.3134
rtibia 53.4496
rfoot -22.2581 27.2098
rtoes -6.83994
lfemur -4.01518 -4.26064 -6.66465
ltibia 77.2308
lfoot 3.24662 2.82852
ltoes -16.1523
79
root 26.0712 17.4942 -13.129 180.326 -22.0514 -162.627
lowerback 1.09403 -1.35858 13.9832
upperback 8.99423 -3.84718 4.33002
thorax 8.6825 -1.51628 -3.40916
lowerneck -4.99732 10.0392 5.15771
upperneck -2.1906 13.1131 -11.3651
head 1.39081 6.37128 -4.15508
rclavicle 5.84427e-014 -7.95139e-016
rhumerus -40.843 4.53837 -93.2512
rradius 76.856
rwrist -6.93148
rhand -29.2018 26.6196
rfingers 7.12502
rthumb -2.54659 -3.34493
lclavicle 5.84427e-014 -7.95139e-016
lhumerus -36.5401 -30.3818 98.6318
lradius 91.3021
lwrist -3.7029
lhand -40.2688 -22.1727
lfingers 7.12502
lthumb -13.2269 7.38763
rfemur -28.561 -0.919499 26.6836
rtibia 53.4689
rfoot -23.522 27.1522
rtoes -6.43012
lfemur -6.08263 -3.41087 -5.4193
ltibia 80.2833
lfoot 2.04538 2.88876
ltoes -16.4157
80
root 25.9589 17.4369 -13.3291 179.829 -22.1415 -162.166
lowerback 1.49449 -1.00186 14.5359
upperback 9.0426 -3.36651 4.42768
thorax 8.5898 -1.26683 -3.56461
lowerneck -5.29352 9.94888 5.39773
upperneck -2.0337 12.9861 -11.4871
head 1.51373 6.29244 -4.22968
rclavicle -5.24792e-014 -6.59965e-014
rhumerus -38.7454 5.40878 -94.0095
rradius 78.0164
rwrist -6.71126
rhand -29.0462 26.7735
rfingers 7.12502
rthumb -2.39634 -3.19278
lclavicle -5.24792e-014 -6.59965e-014
lhumerus -38.3829 -29.8496 99.8569
lradius 90.9162
lwrist -3.24379
lhand -40.0166 -22.0332
lfingers 7.12502
lthumb -12.9837 7.54284
rfemur -27.313 -0.543219 27.0129
rtibia 53.4339
rfoot -24.7318 27.0833
rtoes -6.29521
lfemur -8.25167 -2.50742 -4.21892
ltibia 83.1753
lfoot 0.658567 2.81482
ltoes -17.128
81
root 25.8421 17.385 -13.5272 179.434 -22.2786 -161.78
lowerback 1.82545 -0.653478 14.9849
upperback 9.04769 -2.88439 4.51909
thorax 8.49484 -1.02073 -3.67552
lowerneck -5.53934 9.83792 5.6968
upperneck -1.84889 12.8326 -11.7035
head 1.64763 6.20001 -4.35348
rclavicle -4.85035e-014 2.34566e-014
rhumerus -36.7819 6.40834 -94.8188
rradius 79.2629
rwrist -5.83937
rhand -29.292 26.5692
rfingers 7.12502
rthumb -2.63367 -3.39429
lclavicle -4.85035e-014 2.34566e-014
lhumerus -40.2816 -29.2097 101.067
lradius 90.5819
lwrist -2.98022
lhand -39.7631 -22.0108
lfingers 7.12502
lthumb -12.7394 7.58053
rfemur -26.0975 -0.162297 27.2643
rtibia 53.3246
rfoot -25.8606 26.9148
rtoes -6.46191
lfemur -10.5489 -1.6044 -3.13773
ltibia 85.8337
lfoot -0.823424 2.67728
ltoes -17.8345
82
root 25.7237 17.3444 -13.7198 179.143 -22.453 -161.489
lowerback 2.14638 -0.314046 15.3399
upperback 8.98874 -2.37896 4.56409
thorax 8.33666 -0.766691 -3.78707
lowerneck -5.74472 9.7064 5.94065
upperneck -1.59624 12.655 -12.1989
head 1.64167 6.08181 -4.09367
rclavicle 1.54058e-014 7.55382e-015
rhumerus -34.5802 7.61901 -95.5158
rradius 80.2309
rwrist -5.39452
rhand -29.3745 26.5254
rfingers 7.12502
rthumb -2.71343 -3.43708
lclavicle 1.54058e-014 7.55382e-015
lhumerus -42.4438 -28.4737 102.184
lradius 90.5143
lwrist -2.7862
lhand -39.474 -22.4319
lfingers 7.12502
lthumb -12.4607 7.17665
rfemur -24.9455 0.212678 27.4226
rtibia 53.1354
rfoot -26.8948 26.6527
rtoes -6.77462
lfemur -12.9611 -0.707317 -2.22469
ltibia 88.163
lfoot -2.26902 2.53927
ltoes -17.9132
